<svg width="941" height="321" viewBox="0 0 941 321" fill="none" xmlns="http://www.w3.org/2000/svg">
<path fill-rule="evenodd" clip-rule="evenodd" d="M477.811 170.646C458.406 196.023 427.815 212.393 393.401 212.393C334.75 212.393 287.205 164.848 287.205 106.197C287.205 47.5464 334.75 0.000976562 393.401 0.000976562C427.896 0.000976562 458.55 16.4478 477.948 41.9277L442.417 73.083C431.783 57.3745 413.798 47.0498 393.401 47.0498C360.735 47.0498 334.254 73.5308 334.254 106.197C334.254 138.863 360.735 165.344 393.401 165.344C413.757 165.344 431.712 155.06 442.353 139.405L477.811 170.646Z" fill="#0097DA"/>
<path fill-rule="evenodd" clip-rule="evenodd" d="M685.306 170.645C665.901 196.023 635.31 212.393 600.895 212.393C542.245 212.393 494.699 164.847 494.699 106.197C494.699 47.5466 542.245 0.000976562 600.895 0.000976562C635.391 0.000976562 666.045 16.448 685.443 41.928L649.911 73.0828C639.278 57.3745 621.293 47.0498 600.896 47.0498C568.23 47.0498 541.749 73.5308 541.749 106.197C541.749 138.863 568.23 165.344 600.896 165.344C621.252 165.344 639.206 155.06 649.848 139.405L685.306 170.645Z" fill="#0097DA"/>
<path fill-rule="evenodd" clip-rule="evenodd" d="M762.191 0.000976562H713.365V212.393H762.191V83.6259L802.473 153.395L802.473 153.396H851.298V153.395L891.579 83.6259V212.393H940.405V0.000976562H891.579V0.628261L826.885 112.682L762.191 0.628269V0.000976562Z" fill="#0097DA"/>
<path fill-rule="evenodd" clip-rule="evenodd" d="M213.379 0.000976562H0.987305V82.0864H131.293V212.393H213.379V0.000976562Z" fill="#0097DA"/>
<rect x="0.987305" y="126.468" width="85.9245" height="85.9245" fill="#007EC5"/>
<path d="M325.962 306.01V268.129H311.812V263.061H345.854V268.129H331.646V306.01H325.962ZM350.555 306.01V274.896H355.301V279.613C356.512 277.406 357.625 275.951 358.641 275.248C359.676 274.545 360.809 274.193 362.039 274.193C363.817 274.193 365.623 274.76 367.459 275.893L365.643 280.785C364.354 280.023 363.065 279.643 361.776 279.643C360.623 279.643 359.588 279.994 358.67 280.697C357.752 281.381 357.098 282.338 356.707 283.568C356.121 285.443 355.828 287.494 355.828 289.721V306.01H350.555ZM392.697 302.172C390.744 303.832 388.859 305.004 387.042 305.688C385.246 306.371 383.312 306.713 381.242 306.713C377.824 306.713 375.197 305.883 373.361 304.223C371.525 302.543 370.607 300.404 370.607 297.807C370.607 296.283 370.949 294.896 371.632 293.646C372.335 292.377 373.244 291.361 374.357 290.6C375.49 289.838 376.759 289.262 378.165 288.871C379.201 288.598 380.763 288.334 382.853 288.08C387.111 287.572 390.246 286.967 392.257 286.264C392.277 285.541 392.287 285.082 392.287 284.887C392.287 282.738 391.788 281.225 390.792 280.346C389.445 279.154 387.443 278.559 384.787 278.559C382.306 278.559 380.47 278.998 379.279 279.877C378.107 280.736 377.238 282.27 376.671 284.477L371.515 283.773C371.984 281.566 372.755 279.789 373.829 278.441C374.904 277.074 376.456 276.029 378.488 275.307C380.519 274.564 382.872 274.193 385.548 274.193C388.204 274.193 390.363 274.506 392.023 275.131C393.683 275.756 394.904 276.547 395.685 277.504C396.466 278.441 397.013 279.633 397.326 281.078C397.501 281.977 397.589 283.598 397.589 285.941V292.973C397.589 297.875 397.697 300.98 397.912 302.289C398.146 303.578 398.595 304.818 399.259 306.01H393.751C393.204 304.916 392.853 303.637 392.697 302.172ZM392.257 290.395C390.343 291.176 387.472 291.84 383.644 292.387C381.476 292.699 379.943 293.051 379.044 293.441C378.146 293.832 377.453 294.408 376.964 295.17C376.476 295.912 376.232 296.742 376.232 297.66C376.232 299.066 376.759 300.238 377.814 301.176C378.888 302.113 380.451 302.582 382.501 302.582C384.533 302.582 386.339 302.143 387.921 301.264C389.503 300.365 390.665 299.145 391.408 297.602C391.974 296.41 392.257 294.652 392.257 292.328V290.395ZM407.592 306.01V274.896H412.338V279.32C414.624 275.902 417.924 274.193 422.241 274.193C424.116 274.193 425.835 274.535 427.397 275.219C428.979 275.883 430.161 276.762 430.942 277.855C431.723 278.949 432.27 280.248 432.583 281.752C432.778 282.729 432.876 284.438 432.876 286.879V306.01H427.602V287.084C427.602 284.936 427.397 283.334 426.987 282.279C426.577 281.205 425.844 280.355 424.79 279.73C423.754 279.086 422.534 278.764 421.128 278.764C418.881 278.764 416.938 279.477 415.297 280.902C413.676 282.328 412.866 285.033 412.866 289.018V306.01H407.592ZM440.681 296.723L445.896 295.902C446.189 297.992 447 299.594 448.328 300.707C449.676 301.82 451.551 302.377 453.953 302.377C456.375 302.377 458.172 301.889 459.344 300.912C460.515 299.916 461.101 298.754 461.101 297.426C461.101 296.234 460.584 295.297 459.549 294.613C458.826 294.145 457.029 293.549 454.158 292.826C450.291 291.85 447.605 291.01 446.101 290.307C444.617 289.584 443.484 288.598 442.703 287.348C441.941 286.078 441.56 284.682 441.56 283.158C441.56 281.771 441.873 280.492 442.498 279.32C443.142 278.129 444.012 277.143 445.105 276.361C445.926 275.756 447.039 275.248 448.445 274.838C449.871 274.408 451.394 274.193 453.015 274.193C455.457 274.193 457.596 274.545 459.431 275.248C461.287 275.951 462.654 276.908 463.533 278.119C464.412 279.311 465.017 280.912 465.349 282.924L460.193 283.627C459.959 282.025 459.275 280.775 458.142 279.877C457.029 278.979 455.447 278.529 453.396 278.529C450.974 278.529 449.246 278.93 448.211 279.73C447.176 280.531 446.658 281.469 446.658 282.543C446.658 283.227 446.873 283.842 447.303 284.389C447.732 284.955 448.406 285.424 449.324 285.795C449.851 285.99 451.404 286.439 453.982 287.143C457.713 288.139 460.31 288.959 461.775 289.604C463.26 290.229 464.422 291.146 465.262 292.357C466.101 293.568 466.521 295.072 466.521 296.869C466.521 298.627 466.004 300.287 464.969 301.85C463.953 303.393 462.478 304.594 460.545 305.453C458.611 306.293 456.424 306.713 453.982 306.713C449.939 306.713 446.853 305.873 444.724 304.193C442.615 302.514 441.267 300.023 440.681 296.723ZM474.591 317.934V274.896H479.396V278.939C480.528 277.357 481.808 276.176 483.233 275.395C484.659 274.594 486.388 274.193 488.419 274.193C491.075 274.193 493.419 274.877 495.45 276.244C497.481 277.611 499.015 279.545 500.05 282.045C501.085 284.525 501.603 287.25 501.603 290.219C501.603 293.402 501.026 296.273 499.874 298.832C498.741 301.371 497.081 303.324 494.894 304.691C492.726 306.039 490.44 306.713 488.038 306.713C486.28 306.713 484.698 306.342 483.292 305.6C481.905 304.857 480.763 303.92 479.864 302.787V317.934H474.591ZM479.366 290.629C479.366 294.633 480.177 297.592 481.798 299.506C483.419 301.42 485.382 302.377 487.687 302.377C490.03 302.377 492.032 301.391 493.692 299.418C495.372 297.426 496.212 294.35 496.212 290.189C496.212 286.225 495.392 283.256 493.751 281.283C492.13 279.311 490.187 278.324 487.921 278.324C485.675 278.324 483.683 279.379 481.944 281.488C480.226 283.578 479.366 286.625 479.366 290.629ZM507.826 290.453C507.826 284.691 509.428 280.424 512.631 277.65C515.307 275.346 518.569 274.193 522.416 274.193C526.694 274.193 530.19 275.6 532.904 278.412C535.619 281.205 536.977 285.072 536.977 290.014C536.977 294.018 536.371 297.172 535.16 299.477C533.969 301.762 532.221 303.539 529.916 304.809C527.631 306.078 525.131 306.713 522.416 306.713C518.061 306.713 514.535 305.316 511.84 302.523C509.164 299.73 507.826 295.707 507.826 290.453ZM513.246 290.453C513.246 294.438 514.115 297.426 515.854 299.418C517.592 301.391 519.779 302.377 522.416 302.377C525.033 302.377 527.211 301.381 528.949 299.389C530.688 297.396 531.557 294.359 531.557 290.277C531.557 286.43 530.678 283.52 528.92 281.547C527.182 279.555 525.014 278.559 522.416 278.559C519.779 278.559 517.592 279.545 515.854 281.518C514.115 283.49 513.246 286.469 513.246 290.453ZM544.929 306.01V274.896H549.675V279.613C550.886 277.406 551.999 275.951 553.015 275.248C554.05 274.545 555.183 274.193 556.413 274.193C558.191 274.193 559.997 274.76 561.833 275.893L560.017 280.785C558.728 280.023 557.439 279.643 556.15 279.643C554.997 279.643 553.962 279.994 553.044 280.697C552.126 281.381 551.472 282.338 551.081 283.568C550.496 285.443 550.203 287.494 550.203 289.721V306.01H544.929ZM578.282 301.293L579.044 305.951C577.559 306.264 576.231 306.42 575.059 306.42C573.145 306.42 571.661 306.117 570.606 305.512C569.551 304.906 568.809 304.115 568.379 303.139C567.95 302.143 567.735 300.062 567.735 296.898V278.998H563.868V274.896H567.735V267.191L572.979 264.027V274.896H578.282V278.998H572.979V297.191C572.979 298.695 573.067 299.662 573.243 300.092C573.438 300.521 573.741 300.863 574.151 301.117C574.581 301.371 575.186 301.498 575.967 301.498C576.553 301.498 577.325 301.43 578.282 301.293ZM606.566 295.99L612.015 296.664C611.156 299.848 609.564 302.318 607.24 304.076C604.916 305.834 601.947 306.713 598.334 306.713C593.783 306.713 590.17 305.316 587.494 302.523C584.838 299.711 583.51 295.775 583.51 290.717C583.51 285.482 584.857 281.42 587.553 278.529C590.248 275.639 593.744 274.193 598.041 274.193C602.201 274.193 605.599 275.609 608.236 278.441C610.873 281.273 612.191 285.258 612.191 290.395C612.191 290.707 612.181 291.176 612.162 291.801H588.959C589.154 295.219 590.121 297.836 591.859 299.652C593.597 301.469 595.765 302.377 598.363 302.377C600.297 302.377 601.947 301.869 603.314 300.854C604.681 299.838 605.765 298.217 606.566 295.99ZM589.252 287.465H606.625C606.39 284.848 605.726 282.885 604.633 281.576C602.953 279.545 600.775 278.529 598.099 278.529C595.678 278.529 593.637 279.34 591.976 280.961C590.336 282.582 589.428 284.75 589.252 287.465ZM638.731 317.992L638.145 313.041C639.297 313.354 640.303 313.51 641.162 313.51C642.334 313.51 643.272 313.314 643.975 312.924C644.678 312.533 645.254 311.986 645.703 311.283C646.035 310.756 646.572 309.447 647.315 307.357C647.412 307.064 647.569 306.635 647.783 306.068L635.977 274.896H641.66L648.135 292.914C648.975 295.199 649.727 297.602 650.391 300.121C650.996 297.699 651.719 295.336 652.559 293.031L659.209 274.896H664.483L652.647 306.537C651.377 309.955 650.391 312.309 649.688 313.598C648.75 315.336 647.676 316.605 646.465 317.406C645.254 318.227 643.809 318.637 642.129 318.637C641.113 318.637 639.981 318.422 638.731 317.992ZM689.704 306.01V263.061H695.387V300.941H716.54V306.01H689.704ZM722.5 290.453C722.5 284.691 724.101 280.424 727.305 277.65C729.98 275.346 733.242 274.193 737.09 274.193C741.367 274.193 744.863 275.6 747.578 278.412C750.293 281.205 751.65 285.072 751.65 290.014C751.65 294.018 751.045 297.172 749.834 299.477C748.642 301.762 746.894 303.539 744.59 304.809C742.305 306.078 739.805 306.713 737.09 306.713C732.734 306.713 729.209 305.316 726.513 302.523C723.838 299.73 722.5 295.707 722.5 290.453ZM727.92 290.453C727.92 294.438 728.789 297.426 730.527 299.418C732.265 301.391 734.453 302.377 737.09 302.377C739.707 302.377 741.885 301.381 743.623 299.389C745.361 297.396 746.23 294.359 746.23 290.277C746.23 286.43 745.351 283.52 743.594 281.547C741.855 279.555 739.687 278.559 737.09 278.559C734.453 278.559 732.265 279.545 730.527 281.518C728.789 283.49 727.92 286.469 727.92 290.453ZM758.694 308.588L763.821 309.35C764.036 310.932 764.632 312.084 765.608 312.807C766.917 313.783 768.704 314.271 770.97 314.271C773.411 314.271 775.296 313.783 776.624 312.807C777.952 311.83 778.851 310.463 779.319 308.705C779.593 307.631 779.72 305.375 779.7 301.938C777.396 304.652 774.524 306.01 771.087 306.01C766.81 306.01 763.499 304.467 761.155 301.381C758.812 298.295 757.64 294.594 757.64 290.277C757.64 287.309 758.177 284.574 759.251 282.074C760.325 279.555 761.878 277.611 763.909 276.244C765.96 274.877 768.362 274.193 771.116 274.193C774.788 274.193 777.815 275.678 780.198 278.646V274.896H785.062V301.791C785.062 306.635 784.563 310.062 783.567 312.074C782.591 314.105 781.028 315.707 778.88 316.879C776.751 318.051 774.124 318.637 770.999 318.637C767.288 318.637 764.29 317.797 762.005 316.117C759.72 314.457 758.616 311.947 758.694 308.588ZM763.06 289.896C763.06 293.979 763.87 296.957 765.491 298.832C767.112 300.707 769.144 301.645 771.585 301.645C774.007 301.645 776.038 300.717 777.679 298.861C779.319 296.986 780.14 294.057 780.14 290.072C780.14 286.264 779.29 283.393 777.591 281.459C775.911 279.525 773.88 278.559 771.497 278.559C769.153 278.559 767.161 279.516 765.521 281.43C763.88 283.324 763.06 286.146 763.06 289.896ZM796.705 306.01V274.896H801.979V306.01H796.705ZM796.442 271.029L800.338 262.826H807.252L800.807 271.029H796.442ZM811.249 296.723L816.464 295.902C816.757 297.992 817.568 299.594 818.896 300.707C820.244 301.82 822.119 302.377 824.521 302.377C826.943 302.377 828.74 301.889 829.912 300.912C831.083 299.916 831.669 298.754 831.669 297.426C831.669 296.234 831.152 295.297 830.117 294.613C829.394 294.145 827.597 293.549 824.726 292.826C820.859 291.85 818.173 291.01 816.669 290.307C815.185 289.584 814.052 288.598 813.271 287.348C812.509 286.078 812.128 284.682 812.128 283.158C812.128 281.771 812.441 280.492 813.066 279.32C813.71 278.129 814.579 277.143 815.673 276.361C816.494 275.756 817.607 275.248 819.013 274.838C820.439 274.408 821.962 274.193 823.583 274.193C826.025 274.193 828.163 274.545 829.999 275.248C831.855 275.951 833.222 276.908 834.101 278.119C834.98 279.311 835.585 280.912 835.917 282.924L830.761 283.627C830.527 282.025 829.843 280.775 828.71 279.877C827.597 278.979 826.015 278.529 823.964 278.529C821.542 278.529 819.814 278.93 818.779 279.73C817.744 280.531 817.226 281.469 817.226 282.543C817.226 283.227 817.441 283.842 817.871 284.389C818.3 284.955 818.974 285.424 819.892 285.795C820.419 285.99 821.972 286.439 824.55 287.143C828.281 288.139 830.878 288.959 832.343 289.604C833.828 290.229 834.99 291.146 835.829 292.357C836.669 293.568 837.089 295.072 837.089 296.869C837.089 298.627 836.572 300.287 835.537 301.85C834.521 303.393 833.046 304.594 831.113 305.453C829.179 306.293 826.992 306.713 824.55 306.713C820.507 306.713 817.421 305.873 815.292 304.193C813.183 302.514 811.835 300.023 811.249 296.723ZM856.672 301.293L857.434 305.951C855.95 306.264 854.622 306.42 853.45 306.42C851.536 306.42 850.051 306.117 848.997 305.512C847.942 304.906 847.2 304.115 846.77 303.139C846.34 302.143 846.126 300.062 846.126 296.898V278.998H842.258V274.896H846.126V267.191L851.37 264.027V274.896H856.672V278.998H851.37V297.191C851.37 298.695 851.458 299.662 851.633 300.092C851.829 300.521 852.131 300.863 852.542 301.117C852.971 301.371 853.577 301.498 854.358 301.498C854.944 301.498 855.715 301.43 856.672 301.293ZM863.687 269.125V263.061H868.961V269.125H863.687ZM863.687 306.01V274.896H868.961V306.01H863.687ZM899.12 294.613L904.306 295.287C903.739 298.861 902.284 301.664 899.94 303.695C897.616 305.707 894.755 306.713 891.356 306.713C887.099 306.713 883.671 305.326 881.073 302.553C878.495 299.76 877.206 295.766 877.206 290.57C877.206 287.211 877.763 284.271 878.876 281.752C879.989 279.232 881.679 277.348 883.944 276.098C886.229 274.828 888.71 274.193 891.386 274.193C894.765 274.193 897.528 275.053 899.677 276.771C901.825 278.471 903.202 280.893 903.808 284.037L898.681 284.828C898.192 282.738 897.323 281.166 896.073 280.111C894.843 279.057 893.349 278.529 891.591 278.529C888.935 278.529 886.776 279.486 885.116 281.4C883.456 283.295 882.626 286.303 882.626 290.424C882.626 294.604 883.427 297.641 885.028 299.535C886.63 301.43 888.72 302.377 891.298 302.377C893.368 302.377 895.097 301.742 896.483 300.473C897.87 299.203 898.749 297.25 899.12 294.613ZM930.92 302.172C928.967 303.832 927.082 305.004 925.266 305.688C923.469 306.371 921.535 306.713 919.465 306.713C916.047 306.713 913.42 305.883 911.584 304.223C909.748 302.543 908.83 300.404 908.83 297.807C908.83 296.283 909.172 294.896 909.856 293.646C910.559 292.377 911.467 291.361 912.58 290.6C913.713 289.838 914.983 289.262 916.389 288.871C917.424 288.598 918.987 288.334 921.076 288.08C925.334 287.572 928.469 286.967 930.481 286.264C930.5 285.541 930.51 285.082 930.51 284.887C930.51 282.738 930.012 281.225 929.016 280.346C927.668 279.154 925.666 278.559 923.01 278.559C920.529 278.559 918.694 278.998 917.502 279.877C916.33 280.736 915.461 282.27 914.895 284.477L909.738 283.773C910.207 281.566 910.979 279.789 912.053 278.441C913.127 277.074 914.68 276.029 916.711 275.307C918.742 274.564 921.096 274.193 923.772 274.193C926.428 274.193 928.586 274.506 930.246 275.131C931.906 275.756 933.127 276.547 933.908 277.504C934.69 278.441 935.237 279.633 935.549 281.078C935.725 281.977 935.813 283.598 935.813 285.941V292.973C935.813 297.875 935.92 300.98 936.135 302.289C936.369 303.578 936.819 304.818 937.483 306.01H931.975C931.428 304.916 931.076 303.637 930.92 302.172ZM930.481 290.395C928.567 291.176 925.695 291.84 921.867 292.387C919.699 292.699 918.166 293.051 917.268 293.441C916.369 293.832 915.676 294.408 915.188 295.17C914.699 295.912 914.455 296.742 914.455 297.66C914.455 299.066 914.983 300.238 916.037 301.176C917.112 302.113 918.674 302.582 920.725 302.582C922.756 302.582 924.563 302.143 926.145 301.264C927.727 300.365 928.889 299.145 929.631 297.602C930.197 296.41 930.481 294.652 930.481 292.328V290.395Z" fill="#0097DA"/>
</svg>
